<?xml version="1.0" encoding="UTF-8" standalone="no"?>
<!-- Generator: Adobe Illustrator 15.0.0, SVG Export Plug-In . SVG Version: 6.00 Build 0)  -->

<svg
   xmlns:dc="http://purl.org/dc/elements/1.1/"
   xmlns:cc="http://creativecommons.org/ns#"
   xmlns:rdf="http://www.w3.org/1999/02/22-rdf-syntax-ns#"
   xmlns:svg="http://www.w3.org/2000/svg"
   xmlns="http://www.w3.org/2000/svg"
   xmlns:sodipodi="http://sodipodi.sourceforge.net/DTD/sodipodi-0.dtd"
   xmlns:inkscape="http://www.inkscape.org/namespaces/inkscape"
   version="1.1"
   id="box"
   x="0px"
   y="0px"
   width="675"
   height="675"
   viewBox="0 0 675 675"
   xml:space="preserve"
   sodipodi:docname="byro.svg"
   inkscape:version="0.92.2 (5c3e80d, 2017-08-06)"
   inkscape:export-filename="C:\Users\Henryk\prog\byro\src\byro\static\office\img\byro_32png.png"
   inkscape:export-xdpi="4.5500002"
   inkscape:export-ydpi="4.5500002"><metadata
     id="metadata9"><rdf:RDF><cc:Work
         rdf:about=""><dc:format>image/svg+xml</dc:format><dc:type
           rdf:resource="http://purl.org/dc/dcmitype/StillImage" /><dc:title></dc:title></cc:Work></rdf:RDF></metadata><defs
     id="defs7" /><sodipodi:namedview
     pagecolor="#ffffff"
     bordercolor="#666666"
     borderopacity="1"
     objecttolerance="10"
     gridtolerance="10"
     guidetolerance="10"
     inkscape:pageopacity="0"
     inkscape:pageshadow="2"
     inkscape:window-width="2560"
     inkscape:window-height="1346"
     id="namedview5"
     showgrid="false"
     inkscape:pagecheckerboard="true"
     inkscape:zoom="0.944"
     inkscape:cx="130.91889"
     inkscape:cy="339.56208"
     inkscape:window-x="-11"
     inkscape:window-y="1609"
     inkscape:window-maximized="1"
     inkscape:current-layer="box"
     fit-margin-top="10"
     fit-margin-left="10"
     fit-margin-right="10"
     fit-margin-bottom="10" /><g
     id="g1372"
     transform="translate(0.98633,-8)"><path
       inkscape:connector-curvature="0"
       id="path913"
       d="m 286.99219,55.162552 c -23.94213,0.97877 -42.29552,23.08299 -45.3467,45.758008 -1.25927,3.44978 0.92651,10.19635 -4.67075,8.62448 -36.64281,0.60934 -73.53842,-1.97795 -110.01771,1.58626 -14.47173,5.72627 -18.32754,22.62647 -23.47377,35.60322 C 72.48261,224.14895 39.56917,300.88223 10,378.81294 c 0.29195,23.19521 8.78199,45.27958 11.79052,68.03766 13.78083,67.92451 25.54191,136.40455 41.40284,203.91156 6.97831,12.98143 23.7463,15.60076 37.09375,13.66992 164.19787,-0.41642 328.41855,0.90184 492.60156,-0.73242 14.59702,-3.42047 21.63768,-19.51946 22.05274,-33.29688 15.87849,-82.71478 33.37252,-165.17542 48.08593,-248.08203 -3.31166,-20.05275 -15.04241,-37.24573 -21.1815,-56.36494 -28.53278,-68.82655 -55.43613,-138.36839 -85.55873,-206.5081 -9.17055,-11.8506 -25.95039,-10.74751 -39.3164,-10.16645 -60.44237,0.21972 -120.88662,0.37925 -181.32813,-0.1109 -1.05635,-23.147868 -15.62763,-47.550748 -39.25196,-53.148438 -3.08245,-0.66623 -6.24604,-0.959581 -9.39843,-0.85937 z"
       style="fill:#ffffff;stroke:none;stroke-width:15;stroke-miterlimit:4;stroke-dasharray:none;stroke-opacity:1;paint-order:stroke markers fill" /><path
       style="display:inline;stroke:none;stroke-width:15;stroke-miterlimit:4;stroke-dasharray:none;stroke-opacity:1;paint-order:stroke markers fill"
       id="path2"
       d="m 157.03303,503.12294 c 4.032,-0.966 7.561,-2.432 10.412,-4.585 2.859,-2.16 5.041,-4.959 6.37,-8.549 1.335,-3.607 1.811,-7.994 1.244,-13.303 -0.486,-4.554 -1.519,-8.614 -3.183,-12.152 -1.672,-3.555 -3.979,-6.571 -7.006,-9.019 -3.036,-2.455 -6.792,-4.116 -11.348,-5.379 -4.565,-1.265 -9.924,-1.698 -16.157,-1.698 h -5.542 l 7.496,56 h 4.277 c 4.873,0 9.409,-0.352 13.437,-1.315 z m 25.736,40.395 c -1.968,-4.085 -4.638,-7.49 -8.012,-10.216 -3.387,-2.736 -7.479,-4.62 -12.272,-5.983 -4.802,-1.367 -10.3,-1.881 -16.489,-1.881 h -3.958 l 8.302,62.5 c 6.688,0 12.43,-0.578 17.246,-1.659 4.823,-1.083 8.725,-2.796 11.721,-5.149 3.005,-2.362 5.104,-5.437 6.309,-9.281 1.211,-3.864 1.52,-8.547 0.934,-14.135 -0.566,-5.393 -1.824,-10.132 -3.781,-14.196 z m 348.257,-95.364 c -2.642,-2.104 -5.758,-2.875 -9.158,-2.875 -3.677,0 -7.183,1.267 -10.476,4.154 -3.281,2.877 -6.338,7.353 -9.127,13.755 -2.767,6.35 -5.257,14.563 -7.428,24.925 -2.143,10.223 -3.963,22.479 -5.424,36.996 -0.92,9.139 -1.566,17.819 -1.719,25.673 -0.15,7.771 0.181,14.746 1.211,20.578 1.021,5.785 2.732,10.461 5.353,13.684 2.608,3.208 6.127,4.988 10.786,4.988 4.535,0 8.391,-1.78 11.714,-5.127 3.34,-3.362 6.157,-8.32 8.597,-14.675 2.461,-6.411 4.544,-14.27 6.391,-23.38 1.869,-9.226 3.501,-19.767 5.036,-31.428 1.852,-14.07 2.719,-25.525 2.759,-34.782 0.041,-9.37 -0.766,-16.433 -2.24,-21.681 -1.485,-5.285 -3.639,-8.705 -6.275,-10.805 z m 116.891,-70.623 -100.893,-246.331 c -1.923,-4.695 -6.493,-7.762 -11.567,-7.762 h -200.013 c -1.331,9.195 -4.202,17.681 -8.257,25 h 95.526 c 8.389,-8.436 19.086,-13.5 30.744,-13.5 11.658,0 22.355,5.064 30.744,13.5 h 42.868 l 90.927,222 h -563.458 l 90.328,-222 h 103.195 c -4.055,-7.319 -6.927,-15.805 -8.257,-25 h -103.347 c -5.084,0 -9.662,3.08 -11.578,7.789 l -100.5,247 c -1.442,3.545 -0.422,7.461 0.203,10.961 l 49.607,251.147 c 1.147,5.869 6.289,10.103 12.268,10.103 h 500 c 5.974,0 11.112,-4.227 12.265,-10.087 l 50.075,-254.532 c 0.219,-0.927 0.347,-1.888 0.347,-2.881 0,-1.937 -0.441,-3.771 -1.227,-5.407 z m -434.295,195.392 c -0.91,5.356 -2.746,10.986 -6.115,16.092 -3.346,5.069 -8.208,9.744 -15.202,13.026 -6.961,3.267 -16.057,5.396 -27.94,5.396 h -36.828 l -27.59,-184 h 40.213 c 11.604,0 21.238,2.109 29.175,5.258 7.906,3.136 14.102,7.635 18.893,12.656 4.761,4.992 8.125,10.662 10.41,16.307 2.268,5.604 3.472,11.268 3.924,16.366 0.474,5.329 0.402,10.065 -0.252,14.271 -0.65,4.185 -1.878,7.872 -3.723,11.135 -1.837,3.25 -4.288,6.092 -7.393,8.605 -3.095,2.505 -6.842,4.69 -11.283,6.634 5.741,1.688 10.658,4.025 14.83,6.903 4.155,2.865 7.564,6.263 10.31,10.081 2.73,3.797 4.801,8.008 6.294,12.521 1.484,4.484 2.398,9.265 2.825,14.235 0.344,4.003 0.368,9.118 -0.548,14.514 z m 79.153,34.515 h -25.385 l -3.513,-68.986 -43.837,-115.014 h 30.09 l 25.948,82 h 0.527 l 17.964,-82 h 28.691 l -32.761,115.014 z m 149.714,-128.647 c -0.329,4.905 -1.375,9.926 -3.11,14.775 -1.725,4.819 -4.132,9.474 -7.197,13.688 -3.049,4.19 -6.754,7.951 -11.096,11.017 -4.325,3.052 -9.291,5.535 -14.89,6.954 l 33.403,82.213 h -29.116 l -31.51,-79 h -6.304 l -1.754,79 h -25.385 l 0.794,-184 h 46.405 c 7.806,0 14.988,1.617 21.333,4.233 6.324,2.607 11.797,6.542 16.214,11.405 4.391,4.834 7.729,10.742 9.824,17.441 2.08,6.644 2.933,14.161 2.389,22.274 z m 125.64,6.794 c -0.54,11.567 -2.062,23.688 -3.851,35.568 -1.879,12.487 -4.26,24.423 -7.392,35.247 -3.085,10.667 -6.908,20.283 -11.721,28.332 -4.759,7.959 -10.505,14.418 -17.504,18.872 -6.956,4.426 -15.188,6.897 -24.996,6.897 -10.985,0 -19.231,-2.65 -25.389,-7.303 -6.196,-4.683 -10.311,-11.421 -12.948,-19.575 -2.667,-8.248 -3.835,-17.978 -4.104,-28.521 -0.272,-10.698 0.381,-22.256 1.337,-33.95 1.038,-12.7 2.668,-25.249 5.218,-36.994 2.59,-11.929 6.123,-23 10.929,-32.505 4.865,-9.623 11.014,-17.6 18.758,-23.19 7.8,-5.632 17.17,-8.81 28.38,-8.81 12.408,0 21.589,3.406 28.231,9.32 6.595,5.869 10.646,14.173 12.902,24.001 2.23,9.709 2.697,20.865 2.15,32.611 z m -161.478,-29.123 c -2.474,-2.621 -5.599,-4.519 -9.354,-5.977 -3.762,-1.461 -8.149,-2.048 -13.136,-2.048 h -9.687 l -1.322,58.903 c 6.664,0 12.442,-0.597 17.377,-1.673 4.942,-1.078 9.047,-2.798 12.353,-5.154 3.315,-2.363 5.834,-5.451 7.592,-9.314 1.767,-3.883 2.77,-8.597 3.041,-14.23 0.193,-4.022 -0.289,-7.841 -1.433,-11.299 -1.148,-3.473 -2.965,-6.595 -5.431,-9.208 z m 169.306,-107.024 c 5.522,0 10,-4.478 10,-10 0,-5.523 -4.478,-10 -10,-10 h -291.048 c 1.318,4.29 2.259,8.74 2.315,13.305 0.017,1.379 -0.012,6.525 -0.018,6.695 z m -78.926,-128 h 31.926 c 5.522,0 10,-4.477 10,-10 0,-5.523 -4.478,-10 -10,-10 h -27.531 c -0.503,6.993 -2.002,13.748 -4.395,20 z m -411.074,118 c 0,5.522 4.477,10 10,10 0,0 7.062,-0.062 7,-0.062 v -6.446 c 0,-1.562 1.14,-10.559 2.041,-13.491 h -9.041 c -5.523,-10e-4 -10,4.476 -10,9.999 z m 27,-35 h 8.828 c 3.303,-2.916 6.998,-5.644 11.1,-8.14 8.47,-5.152 18.317,-9.131 29.007,-11.8 -0.017,-0.02 -0.034,-0.041 -0.051,-0.06 h -48.884 c -5.523,0 -10,4.477 -10,10 0,5.523 4.477,10 10,10 z m 402.217,-52.971 c 4.953,3.013 9.331,6.355 13.112,9.971 h 15.671 c 5.522,0 10,-4.477 10,-10 0,-5.523 -4.478,-10 -10,-10 h -51.494 c 8.266,2.55 15.934,5.907 22.711,10.029 z m -227.057,-93.718 c 18.51,0 33.515,-19.833 33.515,-44.3 0,-24.466998 -15.005,-44.299998 -33.515,-44.299998 -18.509,0 -33.514,19.834 -33.514,44.299998 0,24.466 15.005,44.3 33.514,44.3 z m 87.955,140.349 0.01,6 h 154.125 l -0.062,-6 c -0.336,-27 -34.694,-47.382 -77.037,-47.382 -42.342,0 -76.702,20.382 -77.036,47.382 z m 139.885,-132.66 h -21.252 c 3.014,6.14 5.094,12.904 6.135,20 h 15.117 c 5.522,0 10,-4.477 10,-10 0,-5.523 -4.478,-10 -10,-10 z m -283.829,0 h -76.171 c -5.523,0 -10,4.477 -10,10 0,5.523 4.477,10 10,10 h 21.837 c 5.427,-2.48 11.238,-3.795 17.157,-3.795 4.514,0 8.961,0.78 13.227,2.243 4.691,-5.609 10.667,-10.697 17.873,-15.081 1.952,-1.188 3.986,-2.306 6.077,-3.367 z m 254.494,30.673 c 0,-24.466 -15.005,-44.3 -33.515,-44.3 -18.509,0 -33.514,19.834 -33.514,44.3 0,24.466 15.005,44.3 33.514,44.3 18.51,0 33.515,-19.833 33.515,-44.3 z m -246.107,65.327 h 137.439 c 3.779,-3.613 8.138,-6.961 13.087,-9.971 6.776,-4.122 14.444,-7.479 22.711,-10.029 h -170.295 c -0.046,6.916 -1.057,13.665 -2.942,20 z m -79.078,-20.495 c 0,24.466 15.005,44.3 33.514,44.3 18.51,0 33.515,-19.833 33.515,-44.3 0,-24.467 -15.005,-44.3 -33.515,-44.3 -18.509,0 -33.514,19.834 -33.514,44.3 z m 247.747,-19.505 c -2.392,-6.252 -3.891,-13.007 -4.394,-20 h -26.879 c 1.421,4.446 2.337,9.066 2.396,13.811 0.017,1.379 0.087,6.189 0.087,6.189 z m -59,-52.633 c 7.869,4.787 14.299,10.403 19.16,16.633 h 36.031 c 1.042,-7.096 3.122,-13.86 6.135,-20 h -67.403 c 2.091,1.061 4.124,2.179 6.077,3.367 z m -128.543,22.533 c 3.269,2.606 6.292,5.689 8.971,9.229 4.59,6.067 8.032,13.175 10.195,20.868 h 124.337 l 0.01,-6 c -0.336,-27 -34.694,-47.382 -77.037,-47.382 -28.348,0.001 -53.099,9.144 -66.476,23.285 z m 337.316,93.1 h -15.945 c 1.352,4.342 2.233,8.849 2.291,13.473 0.017,1.379 -0.03,6.413 -0.033,6.527 h 13.687 c 5.522,0 10,-4.477 10,-10 0,-5.523 -4.478,-10 -10,-10 z m -441,-33 c 0,5.523 4.477,10 10,10 h 21.432 c -1.885,-6.335 -2.896,-13.084 -2.942,-20 h -18.49 c -5.523,0 -10,4.477 -10,10 z m 15,-40 c 0,5.523 4.477,10 10,10 h 6.138 c 2.062,-7.333 5.296,-14.125 9.568,-20 h -15.706 c -5.523,0 -10,4.477 -10,10 z m 228,86.66 c 0,-1.562 1.317,-10.674 2.247,-13.66 h -135.142 c -0.018,0.02 -0.034,0.041 -0.051,0.06 10.691,2.669 20.538,6.648 29.007,11.8 4.105,2.498 7.818,5.222 11.123,8.14 h 92.816 c -0.003,-0.114 0,-6.34 0,-6.34 z m -88.969,44.831 c -0.336,-27 -34.694,-47.382 -77.037,-47.382 -42.342,0 -76.701,20.382 -77.035,47.382 l -0.021,6.001 h 154.125 z"
       inkscape:connector-curvature="0" /></g></svg>