<?xml version="1.0" encoding="utf-8"?>
<!-- Generator: Adobe Illustrator 15.0.0, SVG Export Plug-In . SVG Version: 6.00 Build 0)  -->
<!DOCTYPE svg PUBLIC "-//W3C//DTD SVG 1.1 Tiny//EN" "http://www.w3.org/Graphics/SVG/1.1/DTD/svg11-tiny.dtd">
<svg version="1.1" baseProfile="tiny" id="box" xmlns="http://www.w3.org/2000/svg" xmlns:xlink="http://www.w3.org/1999/xlink"
	 x="0px" y="0px" width="1000px" height="1000px" viewBox="0 0 1000 1000" xml:space="preserve">
<path d="M320.076,667.685c4.032-0.966,7.561-2.432,10.412-4.585c2.859-2.16,5.041-4.959,6.37-8.549
	c1.335-3.607,1.811-7.994,1.244-13.303c-0.486-4.554-1.519-8.614-3.183-12.152c-1.672-3.555-3.979-6.571-7.006-9.019
	c-3.036-2.455-6.792-4.116-11.348-5.379C312,613.433,306.641,613,300.408,613h-5.542l7.496,56h4.277
	C311.512,669,316.048,668.648,320.076,667.685z M345.812,708.08c-1.968-4.085-4.638-7.49-8.012-10.216
	c-3.387-2.736-7.479-4.62-12.272-5.983c-4.802-1.367-10.3-1.881-16.489-1.881h-3.958l8.302,62.5c6.688,0,12.43-0.578,17.246-1.659
	c4.823-1.083,8.725-2.796,11.721-5.149c3.005-2.362,5.104-5.437,6.309-9.281c1.211-3.864,1.52-8.547,0.934-14.135
	C349.027,716.883,347.769,712.144,345.812,708.08z M694.069,612.716c-2.642-2.104-5.758-2.875-9.158-2.875
	c-3.677,0-7.183,1.267-10.476,4.154c-3.281,2.877-6.338,7.353-9.127,13.755c-2.767,6.35-5.257,14.563-7.428,24.925
	c-2.143,10.223-3.963,22.479-5.424,36.996c-0.92,9.139-1.566,17.819-1.719,25.673c-0.15,7.771,0.181,14.746,1.211,20.578
	c1.021,5.785,2.732,10.461,5.353,13.684c2.608,3.208,6.127,4.988,10.786,4.988c4.535,0,8.391-1.78,11.714-5.127
	c3.34-3.362,6.157-8.32,8.597-14.675c2.461-6.411,4.544-14.27,6.391-23.38c1.869-9.226,3.501-19.767,5.036-31.428
	c1.852-14.07,2.719-25.525,2.759-34.782c0.041-9.37-0.766-16.433-2.24-21.681C698.859,618.236,696.705,614.816,694.069,612.716z
	 M810.96,542.093L710.067,295.762c-1.923-4.695-6.493-7.762-11.567-7.762H498.487c-1.331,9.195-4.202,17.681-8.257,25h95.526
	c8.389-8.436,19.086-13.5,30.744-13.5s22.355,5.064,30.744,13.5h42.868l90.927,222H217.581l90.328-222h103.195
	c-4.055-7.319-6.927-15.805-8.257-25H299.5c-5.084,0-9.662,3.08-11.578,7.789l-100.5,247c-1.442,3.545-0.422,7.461,0.203,10.961
	l49.607,251.147C238.379,810.766,243.521,815,249.5,815h500c5.974,0,11.112-4.227,12.265-10.087l50.075-254.532
	c0.219-0.927,0.347-1.888,0.347-2.881C812.187,545.563,811.746,543.729,810.96,542.093z M376.665,737.485
	c-0.91,5.356-2.746,10.986-6.115,16.092c-3.346,5.069-8.208,9.744-15.202,13.026c-6.961,3.267-16.057,5.396-27.94,5.396H290.58
	l-27.59-184h40.213c11.604,0,21.238,2.109,29.175,5.258c7.906,3.136,14.102,7.635,18.893,12.656
	c4.761,4.992,8.125,10.662,10.41,16.307c2.268,5.604,3.472,11.268,3.924,16.366c0.474,5.329,0.402,10.065-0.252,14.271
	c-0.65,4.185-1.878,7.872-3.723,11.135c-1.837,3.25-4.288,6.092-7.393,8.605c-3.095,2.505-6.842,4.69-11.283,6.634
	c5.741,1.688,10.658,4.025,14.83,6.903c4.155,2.865,7.564,6.263,10.31,10.081c2.73,3.797,4.801,8.008,6.294,12.521
	c1.484,4.484,2.398,9.265,2.825,14.235C377.557,726.974,377.581,732.089,376.665,737.485z M455.818,772h-25.385l-3.513-68.986
	L383.083,588h30.09l25.948,82h0.527l17.964-82h28.691l-32.761,115.014L455.818,772z M605.532,643.353
	c-0.329,4.905-1.375,9.926-3.11,14.775c-1.725,4.819-4.132,9.474-7.197,13.688c-3.049,4.19-6.754,7.951-11.096,11.017
	c-4.325,3.052-9.291,5.535-14.89,6.954L602.642,772h-29.116l-31.51-79h-6.304l-1.754,79h-25.385l0.794-184h46.405
	c7.806,0,14.988,1.617,21.333,4.233c6.324,2.607,11.797,6.542,16.214,11.405c4.391,4.834,7.729,10.742,9.824,17.441
	C605.223,627.723,606.076,635.24,605.532,643.353z M731.172,650.147c-0.54,11.567-2.062,23.688-3.851,35.568
	c-1.879,12.487-4.26,24.423-7.392,35.247c-3.085,10.667-6.908,20.283-11.721,28.332c-4.759,7.959-10.505,14.418-17.504,18.872
	c-6.956,4.426-15.188,6.897-24.996,6.897c-10.985,0-19.231-2.65-25.389-7.303c-6.196-4.683-10.311-11.421-12.948-19.575
	c-2.667-8.248-3.835-17.978-4.104-28.521c-0.272-10.698,0.381-22.256,1.337-33.95c1.038-12.7,2.668-25.249,5.218-36.994
	c2.59-11.929,6.123-23,10.929-32.505c4.865-9.623,11.014-17.6,18.758-23.19c7.8-5.632,17.17-8.81,28.38-8.81
	c12.408,0,21.589,3.406,28.231,9.32c6.595,5.869,10.646,14.173,12.902,24.001C731.252,627.245,731.719,638.401,731.172,650.147z
	 M569.694,621.024c-2.474-2.621-5.599-4.519-9.354-5.977c-3.762-1.461-8.149-2.048-13.136-2.048h-9.687l-1.322,58.903
	c6.664,0,12.442-0.597,17.377-1.673c4.942-1.078,9.047-2.798,12.353-5.154c3.315-2.363,5.834-5.451,7.592-9.314
	c1.767-3.883,2.77-8.597,3.041-14.23c0.193-4.022-0.289-7.841-1.433-11.299C573.977,626.759,572.16,623.637,569.694,621.024z
	 M739,514c5.522,0,10-4.478,10-10c0-5.523-4.478-10-10-10H447.952c1.318,4.29,2.259,8.74,2.315,13.305
	c0.017,1.379-0.012,6.525-0.018,6.695H739z M660.074,386H692c5.522,0,10-4.477,10-10s-4.478-10-10-10h-27.531
	C663.966,372.993,662.467,379.748,660.074,386z M249,504c0,5.522,4.477,10,10,10c0,0,7.062-0.062,7-0.062v-6.446
	c0-1.562,1.14-10.559,2.041-13.491H259C253.477,494,249,498.477,249,504z M276,469h8.828c3.303-2.916,6.998-5.644,11.1-8.14
	c8.47-5.152,18.317-9.131,29.007-11.8c-0.017-0.02-0.034-0.041-0.051-0.06H276c-5.523,0-10,4.477-10,10S270.477,469,276,469z
	 M678.217,416.029c4.953,3.013,9.331,6.355,13.112,9.971H707c5.522,0,10-4.477,10-10s-4.478-10-10-10h-51.494
	C663.772,408.55,671.44,411.907,678.217,416.029z M451.16,322.311c18.51,0,33.515-19.833,33.515-44.3s-15.005-44.3-33.515-44.3
	c-18.509,0-33.514,19.834-33.514,44.3S432.651,322.311,451.16,322.311z M539.115,462.66l0.01,6H693.25l-0.062-6
	c-0.336-27-34.694-47.382-77.037-47.382C573.809,415.278,539.449,435.66,539.115,462.66z M679,330h-21.252
	c3.014,6.14,5.094,12.904,6.135,20H679c5.522,0,10-4.477,10-10S684.522,330,679,330z M395.171,330H319c-5.523,0-10,4.477-10,10
	s4.477,10,10,10h21.837c5.427-2.48,11.238-3.795,17.157-3.795c4.514,0,8.961,0.78,13.227,2.243
	c4.691-5.609,10.667-10.697,17.873-15.081C391.046,332.179,393.08,331.061,395.171,330z M649.665,360.673
	c0-24.466-15.005-44.3-33.515-44.3c-18.509,0-33.514,19.834-33.514,44.3s15.005,44.3,33.514,44.3
	C634.66,404.973,649.665,385.14,649.665,360.673z M403.558,426h137.439c3.779-3.613,8.138-6.961,13.087-9.971
	c6.776-4.122,14.444-7.479,22.711-10.029H406.5C406.454,412.916,405.443,419.665,403.558,426z M324.48,405.505
	c0,24.466,15.005,44.3,33.514,44.3c18.51,0,33.515-19.833,33.515-44.3s-15.005-44.3-33.515-44.3
	C339.485,361.205,324.48,381.039,324.48,405.505z M572.227,386c-2.392-6.252-3.891-13.007-4.394-20h-26.879
	c1.421,4.446,2.337,9.066,2.396,13.811c0.017,1.379,0.087,6.189,0.087,6.189H572.227z M513.227,333.367
	c7.869,4.787,14.299,10.403,19.16,16.633h36.031c1.042-7.096,3.122-13.86,6.135-20h-67.403
	C509.241,331.061,511.274,332.179,513.227,333.367z M384.684,355.9c3.269,2.606,6.292,5.689,8.971,9.229
	c4.59,6.067,8.032,13.175,10.195,20.868h124.337l0.01-6c-0.336-27-34.694-47.382-77.037-47.382
	C422.812,332.616,398.061,341.759,384.684,355.9z M722,449h-15.945c1.352,4.342,2.233,8.849,2.291,13.473
	c0.017,1.379-0.03,6.413-0.033,6.527H722c5.522,0,10-4.477,10-10S727.522,449,722,449z M281,416c0,5.523,4.477,10,10,10h21.432
	c-1.885-6.335-2.896-13.084-2.942-20H291C285.477,406,281,410.477,281,416z M296,376c0,5.523,4.477,10,10,10h6.138
	c2.062-7.333,5.296-14.125,9.568-20H306C300.477,366,296,370.477,296,376z M524,462.66c0-1.562,1.317-10.674,2.247-13.66H391.105
	c-0.018,0.02-0.034,0.041-0.051,0.06c10.691,2.669,20.538,6.648,29.007,11.8c4.105,2.498,7.818,5.222,11.123,8.14H524
	C523.997,468.886,524,462.66,524,462.66z M435.031,507.491c-0.336-27-34.694-47.382-77.037-47.382
	c-42.342,0-76.701,20.382-77.035,47.382l-0.021,6.001h154.125L435.031,507.491z"/>
</svg>
